<svg width="36" height="36" viewBox="0 0 36 36" fill="none" xmlns="http://www.w3.org/2000/svg">
<path d="M17.5006 4.81378C20.6251 4.81289 23.6532 5.89546 26.0689 7.87702C28.4847 9.85859 30.1386 12.6165 30.7488 15.6809C31.359 18.7452 30.8877 21.9263 29.4153 24.6821C27.9429 27.4379 25.5604 29.5979 22.6739 30.7939C19.7874 31.99 16.5755 32.1482 13.5855 31.2414C10.5954 30.3347 8.01231 28.4192 6.2763 25.8214C4.54029 23.2235 3.75881 20.1041 4.06503 16.9947C4.37125 13.8852 5.74622 10.9781 7.95563 8.76886C9.20736 7.51296 10.6951 6.51698 12.3332 5.83821C13.9713 5.15944 15.7274 4.81129 17.5006 4.81378ZM17.4149 21.1131L15.4483 26.5469C15.4 26.6831 15.3249 26.8082 15.2276 26.915C15.1302 27.0218 15.0125 27.1081 14.8814 27.1688C14.6844 27.2611 14.4645 27.2929 14.2494 27.2601C14.0344 27.2273 13.8339 27.1314 13.6734 26.9846C13.5129 26.8377 13.3996 26.6465 13.3479 26.4352C13.2962 26.2239 13.3084 26.002 13.3829 25.7977L14.754 22.0008C14.8628 21.7151 14.9487 21.4212 15.0111 21.1219C15.0665 20.818 15.1061 20.5114 15.1297 20.2034C15.1824 19.6475 15.2198 19.0455 15.2484 18.4676C15.2769 17.8897 15.2967 17.3294 15.3121 16.8658C15.3319 16.2879 15.1758 16.2505 14.7122 16.1407L14.6155 16.1187L10.6605 15.3738C10.5182 15.3488 10.3823 15.2959 10.2605 15.2182C10.1388 15.1405 10.0335 15.0396 9.95075 14.9212C9.82784 14.7418 9.76091 14.53 9.75845 14.3126C9.75598 14.0952 9.81809 13.8819 9.9369 13.6998C10.0557 13.5177 10.2259 13.375 10.4259 13.2897C10.6259 13.2043 10.8467 13.1803 11.0604 13.2205L15.3099 14.0181C15.4791 14.0335 15.6439 14.0533 15.8174 14.0731C16.3404 14.1447 16.8673 14.1836 17.3951 14.1895C18.0521 14.1767 18.7079 14.1275 19.3594 14.0423C19.5572 14.0203 19.744 13.9962 19.9307 13.9786L23.9407 13.2271C24.2252 13.1681 24.5215 13.2242 24.7647 13.3831C24.8853 13.4647 24.9884 13.5694 25.0681 13.6912C25.1479 13.8129 25.2026 13.9493 25.2292 14.0924C25.2558 14.2355 25.2537 14.3825 25.223 14.5248C25.1922 14.667 25.1336 14.8018 25.0504 14.9212C24.9687 15.0403 24.8644 15.1422 24.7434 15.221C24.6224 15.2998 24.487 15.354 24.345 15.3804L20.513 16.1011C20.3856 16.1297 20.2713 16.1495 20.1702 16.1649C19.7703 16.233 19.5726 16.2681 19.5967 16.8372C19.6143 17.2525 19.6649 17.7491 19.7308 18.2676C19.8077 18.8763 19.9088 19.5223 20.0142 20.1133C20.0823 20.5023 20.1461 20.8143 20.234 21.1131C20.3218 21.4119 20.4075 21.7173 20.5394 22.0843L21.8819 25.7977C21.9564 26.002 21.9686 26.2239 21.9169 26.4352C21.8652 26.6465 21.7519 26.8377 21.5914 26.9846C21.4309 27.1314 21.2304 27.2273 21.0153 27.2601C20.8003 27.2929 20.5803 27.2611 20.3834 27.1688C20.2522 27.1081 20.1346 27.0218 20.0372 26.915C19.9399 26.8082 19.8648 26.6831 19.8165 26.5469L17.8433 21.1241L17.6236 20.722L17.4039 21.1131H17.4149ZM17.5006 9.35333C17.9494 9.35295 18.3846 9.50823 18.7318 9.79272C19.079 10.0772 19.3169 10.4733 19.4048 10.9135C19.4927 11.3537 19.4253 11.8108 19.214 12.2068C19.0027 12.6029 18.6606 12.9134 18.246 13.0855C17.8314 13.2576 17.3699 13.2806 16.9403 13.1505C16.5106 13.0205 16.1394 12.7456 15.8897 12.3725C15.6401 11.9994 15.5275 11.5513 15.5712 11.1046C15.615 10.6578 15.8122 10.24 16.1295 9.92242C16.3092 9.74182 16.5228 9.59856 16.7581 9.50089C16.9935 9.40321 17.2458 9.35307 17.5006 9.35333ZM25.4876 10.3267C23.6421 8.47508 21.2117 7.32072 18.6104 7.06036C16.0091 6.8 13.3981 7.44976 11.2222 8.8989C9.0464 10.348 7.44041 12.5069 6.678 15.0075C5.91558 17.5081 6.04391 20.1957 7.04113 22.6123C8.03834 25.0289 9.84273 27.0249 12.1468 28.2601C14.4508 29.4953 17.1119 29.8934 19.6765 29.3863C22.2411 28.8793 24.5505 27.4986 26.2112 25.4795C27.8718 23.4605 28.7809 20.928 28.7835 18.3138C28.7868 16.8311 28.4973 15.3623 27.9317 13.9917C27.3662 12.6211 26.5356 11.3756 25.4876 10.3267Z" fill="#F48184"/>
</svg>
