<svg width="33" height="33" viewBox="0 0 33 33" fill="none" xmlns="http://www.w3.org/2000/svg">
<path d="M16.5 20.625C17.9587 20.625 19.3576 20.0455 20.3891 19.0141C21.4205 17.9826 22 16.5837 22 15.125V8.25C22 6.79131 21.4205 5.39236 20.3891 4.36091C19.3576 3.32946 17.9587 2.75 16.5 2.75C15.0413 2.75 13.6424 3.32946 12.6109 4.36091C11.5795 5.39236 11 6.79131 11 8.25V15.125C11 16.5837 11.5795 17.9826 12.6109 19.0141C13.6424 20.0455 15.0413 20.625 16.5 20.625Z" fill="#F48184"/>
<path d="M26.125 15.125C26.125 14.7603 25.9801 14.4106 25.7223 14.1527C25.4644 13.8949 25.1147 13.75 24.75 13.75C24.3853 13.75 24.0356 13.8949 23.7777 14.1527C23.5199 14.4106 23.375 14.7603 23.375 15.125C23.375 16.9483 22.6507 18.697 21.3614 19.9863C20.072 21.2757 18.3234 22 16.5 22C14.6766 22 12.928 21.2757 11.6386 19.9863C10.3493 18.697 9.625 16.9483 9.625 15.125C9.625 14.7603 9.48013 14.4106 9.22227 14.1527C8.96441 13.8949 8.61467 13.75 8.25 13.75C7.88533 13.75 7.53559 13.8949 7.27773 14.1527C7.01987 14.4106 6.875 14.7603 6.875 15.125C6.87771 17.4375 7.71293 19.6718 9.22787 21.419C10.7428 23.1662 12.8362 24.3096 15.125 24.64V27.5H12.2238C11.8992 27.5 11.5879 27.6289 11.3584 27.8584C11.1289 28.0879 11 28.3992 11 28.7237V29.0262C11 29.3508 11.1289 29.6621 11.3584 29.8916C11.5879 30.1211 11.8992 30.25 12.2238 30.25H20.7762C21.1008 30.25 21.4121 30.1211 21.6416 29.8916C21.8711 29.6621 22 29.3508 22 29.0262V28.7237C22 28.3992 21.8711 28.0879 21.6416 27.8584C21.4121 27.6289 21.1008 27.5 20.7762 27.5H17.875V24.64C20.1638 24.3096 22.2572 23.1662 23.7721 21.419C25.2871 19.6718 26.1223 17.4375 26.125 15.125Z" fill="#F48184"/>
</svg>
