<svg width="36" height="36" viewBox="0 0 36 36" fill="none" xmlns="http://www.w3.org/2000/svg">
<path d="M31.5 10.5C31.5142 10.3955 31.5142 10.2895 31.5 10.185C31.4869 10.0969 31.4617 10.0111 31.425 9.93C31.3853 9.85669 31.3402 9.78649 31.29 9.72C31.2329 9.62513 31.1621 9.5392 31.08 9.465L30.9 9.36C30.8134 9.29543 30.7172 9.24482 30.615 9.21H30.315C30.2235 9.12149 30.1168 9.05034 30 9H22.5C22.1021 9 21.7206 9.15804 21.4393 9.43934C21.158 9.72064 21 10.1022 21 10.5C21 10.8978 21.158 11.2794 21.4393 11.5607C21.7206 11.842 22.1021 12 22.5 12H26.745L20.745 19.065L14.265 15.21C13.958 15.0275 13.596 14.9604 13.2441 15.0209C12.8921 15.0814 12.5733 15.2654 12.345 15.54L4.84495 24.54C4.71865 24.6916 4.62349 24.8666 4.56493 25.055C4.50636 25.2434 4.48554 25.4415 4.50365 25.638C4.52176 25.8344 4.57846 26.0254 4.67049 26.1999C4.76251 26.3744 4.88807 26.5291 5.03995 26.655C5.30982 26.8786 5.64948 27.0007 5.99995 27C6.22032 27.0004 6.43806 26.9522 6.63768 26.8588C6.83731 26.7655 7.01392 26.6293 7.15495 26.46L13.83 18.45L20.235 22.29C20.5388 22.4702 20.8964 22.5374 21.2449 22.4798C21.5934 22.4221 21.9103 22.2434 22.14 21.975L28.5 14.55V18C28.5 18.3978 28.658 18.7794 28.9393 19.0607C29.2206 19.342 29.6021 19.5 30 19.5C30.3978 19.5 30.7793 19.342 31.0606 19.0607C31.3419 18.7794 31.5 18.3978 31.5 18V10.5Z" fill="#F48184"/>
</svg>
