<svg width="33" height="33" viewBox="0 0 33 33" fill="none" xmlns="http://www.w3.org/2000/svg">
<path d="M16.5 2.75C13.7805 2.75 11.1221 3.55642 8.86092 5.06729C6.59974 6.57816 4.83737 8.72562 3.79666 11.2381C2.75596 13.7506 2.48366 16.5153 3.01421 19.1825C3.54476 21.8497 4.85432 24.2997 6.77729 26.2227C8.70026 28.1457 11.1503 29.4553 13.8175 29.9858C16.4848 30.5163 19.2494 30.2441 21.7619 29.2033C24.2744 28.1626 26.4218 26.4003 27.9327 24.1391C29.4436 21.8779 30.25 19.2195 30.25 16.5C30.25 14.6943 29.8944 12.9063 29.2034 11.2381C28.5124 9.56988 27.4995 8.05409 26.2227 6.77728C24.9459 5.50048 23.4301 4.48766 21.7619 3.79666C20.0937 3.10565 18.3057 2.75 16.5 2.75ZM16.5 27.5C14.3244 27.5 12.1977 26.8549 10.3887 25.6462C8.57979 24.4375 7.1699 22.7195 6.33733 20.7095C5.50477 18.6995 5.28693 16.4878 5.71137 14.354C6.13581 12.2202 7.18345 10.2602 8.72183 8.72183C10.2602 7.18345 12.2202 6.1358 14.354 5.71136C16.4878 5.28693 18.6995 5.50476 20.7095 6.33733C22.7195 7.16989 24.4375 8.57979 25.6462 10.3887C26.8549 12.1977 27.5 14.3244 27.5 16.5C27.5 19.4174 26.3411 22.2153 24.2782 24.2782C22.2153 26.3411 19.4174 27.5 16.5 27.5Z" fill="#F48184"/>
<path d="M22 15.125H17.875V11C17.875 10.6353 17.7301 10.2856 17.4723 10.0277C17.2144 9.76987 16.8647 9.625 16.5 9.625C16.1353 9.625 15.7856 9.76987 15.5277 10.0277C15.2699 10.2856 15.125 10.6353 15.125 11V16.5C15.125 16.8647 15.2699 17.2144 15.5277 17.4723C15.7856 17.7301 16.1353 17.875 16.5 17.875H22C22.3647 17.875 22.7144 17.7301 22.9723 17.4723C23.2301 17.2144 23.375 16.8647 23.375 16.5C23.375 16.1353 23.2301 15.7856 22.9723 15.5277C22.7144 15.2699 22.3647 15.125 22 15.125Z" fill="#F48184"/>
</svg>
