<svg width="33" height="33" viewBox="0 0 33 33" fill="none" xmlns="http://www.w3.org/2000/svg">
<path d="M6.47602 4.52368C6.34781 4.39548 6.19561 4.29379 6.02811 4.2244C5.8606 4.15502 5.68107 4.11931 5.49977 4.11931C5.31846 4.11931 5.13893 4.15502 4.97142 4.2244C4.80392 4.29379 4.65172 4.39548 4.52352 4.52368C4.2646 4.7826 4.11914 5.13377 4.11914 5.49993C4.11914 5.8661 4.2646 6.21727 4.52352 6.47618L12.2648 14.2174C11.775 15.1285 11.5918 16.1732 11.7424 17.1966C11.893 18.22 12.3693 19.1676 13.1007 19.899C13.8321 20.6305 14.7797 21.1067 15.8031 21.2573C16.8265 21.4079 17.8712 21.2247 18.7823 20.7349L26.5235 28.4762C26.6513 28.6051 26.8034 28.7074 26.971 28.7772C27.1385 28.847 27.3182 28.8829 27.4998 28.8829C27.6813 28.8829 27.861 28.847 28.0286 28.7772C28.1961 28.7074 28.3482 28.6051 28.476 28.4762C28.6049 28.3484 28.7072 28.1963 28.777 28.0287C28.8468 27.8612 28.8827 27.6815 28.8827 27.4999C28.8827 27.3184 28.8468 27.1387 28.777 26.9711C28.7072 26.8036 28.6049 26.6515 28.476 26.5237L6.47602 4.52368ZM16.4998 18.5624C15.9528 18.5624 15.4282 18.3451 15.0414 17.9583C14.6546 17.5715 14.4373 17.0469 14.4373 16.4999C14.4373 16.4999 14.4373 16.4312 14.4373 16.4037L16.5823 18.5487L16.4998 18.5624Z" fill="#F48184"/>
<path d="M16.8024 23.3749C10.8899 23.5124 7.01235 18.4387 5.80235 16.4999C6.66375 15.1259 7.69897 13.8688 8.88235 12.7599L6.87485 10.8212C5.32292 12.2834 3.99341 13.965 2.9286 15.8124C2.80792 16.0214 2.74438 16.2585 2.74438 16.4999C2.74438 16.7413 2.80792 16.9784 2.9286 17.1874C3.79485 18.6862 8.4286 26.1249 16.5274 26.1249H16.8711C18.394 26.0797 19.8971 25.7679 21.3124 25.2037L19.1399 23.0312C18.3759 23.2321 17.5919 23.3474 16.8024 23.3749Z" fill="#F48184"/>
<path d="M30.071 15.8124C29.191 14.2862 24.3373 6.62745 16.1285 6.87495C14.6056 6.92012 13.1025 7.23192 11.6873 7.7962L13.8598 9.9687C14.6237 9.76771 15.4077 9.65242 16.1973 9.62495C22.096 9.4737 25.9735 14.5612 27.1973 16.4999C26.3146 17.8781 25.2561 19.1354 24.0485 20.2399L26.1248 22.1787C27.6962 20.7203 29.0444 19.0385 30.126 17.1874C30.2384 16.9736 30.2925 16.734 30.2829 16.4926C30.2732 16.2512 30.2002 16.0166 30.071 15.8124Z" fill="#F48184"/>
</svg>
