<svg width="36" height="36" viewBox="0 0 36 36" fill="none" xmlns="http://www.w3.org/2000/svg">
<path d="M18.0001 31.5C17.8026 31.5012 17.6069 31.4633 17.4242 31.3887C17.2414 31.314 17.0752 31.204 16.9351 31.065L5.28005 19.395C3.81809 17.9178 2.99805 15.9234 2.99805 13.845C2.99805 11.7667 3.81809 9.77226 5.28005 8.29503C6.75345 6.82579 8.7493 6.00073 10.8301 6.00073C12.9108 6.00073 14.9067 6.82579 16.3801 8.29503L18.0001 9.91503L19.6201 8.29503C21.0934 6.82579 23.0893 6.00073 25.1701 6.00073C27.2508 6.00073 29.2467 6.82579 30.7201 8.29503C32.182 9.77226 33.0021 11.7667 33.0021 13.845C33.0021 15.9234 32.182 17.9178 30.7201 19.395L19.0651 31.065C18.9249 31.204 18.7587 31.314 18.5759 31.3887C18.3932 31.4633 18.1975 31.5012 18.0001 31.5ZM10.8301 9.00003C10.1951 8.99715 9.56582 9.1203 8.97877 9.36233C8.39171 9.60436 7.85851 9.96047 7.41005 10.41C6.50414 11.3207 5.99561 12.553 5.99561 13.8375C5.99561 15.1221 6.50414 16.3543 7.41005 17.265L18.0001 27.87L28.5901 17.265C29.496 16.3543 30.0045 15.1221 30.0045 13.8375C30.0045 12.553 29.496 11.3207 28.5901 10.41C27.6656 9.53659 26.4419 9.04997 25.1701 9.04997C23.8982 9.04997 22.6746 9.53659 21.7501 10.41L19.0651 13.11C18.9256 13.2506 18.7597 13.3622 18.5769 13.4384C18.3941 13.5145 18.1981 13.5537 18.0001 13.5537C17.802 13.5537 17.606 13.5145 17.4232 13.4384C17.2404 13.3622 17.0745 13.2506 16.9351 13.11L14.2501 10.41C13.8016 9.96047 13.2684 9.60436 12.6813 9.36233C12.0943 9.1203 11.465 8.99715 10.8301 9.00003Z" fill="#F48184"/>
</svg>
