<svg width="22" height="22" viewBox="0 0 22 22" fill="none" xmlns="http://www.w3.org/2000/svg">
<path d="M15.831 20.4241H2.63971C2.28641 20.4241 2 20.1377 2 19.7844V9.33577C2 8.98247 2.28641 8.69606 2.63971 8.69606H5.59051C6.33954 8.69606 7.03363 8.30306 7.419 7.66078L10.3088 2.84441C10.9324 1.80517 12.4011 1.70638 13.1582 2.65277C13.515 3.09885 13.6301 3.69175 13.4659 4.23893L12.3758 7.87253C12.2527 8.28297 12.56 8.69606 12.9885 8.69606H17.8664C19.2724 8.69606 20.2936 10.0331 19.9237 11.3895L17.8882 18.8528C17.6352 19.7806 16.7926 20.4241 15.831 20.4241Z" stroke="#4C66DF" stroke-width="2.97145" stroke-linecap="round"/>
<path d="M5.73169 20.4241V8.69607" stroke="#4C66DF" stroke-width="2.97145" stroke-linecap="round" stroke-linejoin="round"/>
</svg>
