<svg width="22" height="22" viewBox="0 0 22 22" fill="none" xmlns="http://www.w3.org/2000/svg">
<path d="M15.831 2H2.63971C2.28641 2 2 2.28641 2 2.63971V13.0883C2 13.4417 2.28641 13.728 2.63971 13.728H5.59051C6.33954 13.728 7.03363 14.121 7.419 14.7633L10.3088 19.5797C10.9324 20.6189 12.4011 20.7177 13.1582 19.7713C13.515 19.3252 13.6301 18.7324 13.4659 18.1851L12.3758 14.5516C12.2527 14.1411 12.56 13.728 12.9885 13.728H17.8664C19.2724 13.728 20.2936 12.391 19.9237 11.0346L17.8882 3.5713C17.6352 2.64359 16.7926 2 15.831 2Z" stroke="#CDAEAE" stroke-width="2.97145" stroke-linecap="round"/>
<path d="M5.73169 13.728V2" stroke="#CDAEAE" stroke-width="2.97145" stroke-linecap="round" stroke-linejoin="round"/>
</svg>
