<svg width="37" height="37" viewBox="0 0 37 37" fill="none" xmlns="http://www.w3.org/2000/svg">
<path d="M27.75 4.625H9.25C8.02337 4.625 6.84699 5.11228 5.97963 5.97963C5.11228 6.84699 4.625 8.02337 4.625 9.25V27.75C4.625 28.9766 5.11228 30.153 5.97963 31.0204C6.84699 31.8877 8.02337 32.375 9.25 32.375H27.75C28.9766 32.375 30.153 31.8877 31.0204 31.0204C31.8877 30.153 32.375 28.9766 32.375 27.75V9.25C32.375 8.02337 31.8877 6.84699 31.0204 5.97963C30.153 5.11228 28.9766 4.625 27.75 4.625ZM9.25 7.70833H27.75C28.1589 7.70833 28.551 7.87076 28.8401 8.15988C29.1292 8.449 29.2917 8.84112 29.2917 9.25V22.1383L24.3583 17.9296C23.594 17.3007 22.6349 16.9568 21.645 16.9568C20.6551 16.9568 19.696 17.3007 18.9317 17.9296L7.70833 27.2875V9.25C7.70833 8.84112 7.87076 8.449 8.15988 8.15988C8.449 7.87076 8.84112 7.70833 9.25 7.70833Z" fill="#F48184"/>
<path d="M12.3333 15.4167C13.6104 15.4167 14.6458 14.3813 14.6458 13.1042C14.6458 11.827 13.6104 10.7917 12.3333 10.7917C11.0561 10.7917 10.0208 11.827 10.0208 13.1042C10.0208 14.3813 11.0561 15.4167 12.3333 15.4167Z" fill="#F48184"/>
</svg>
