<svg width="36" height="36" viewBox="0 0 36 36" fill="none" xmlns="http://www.w3.org/2000/svg">
<path d="M4 27.8384V26.411C4 20.8927 8.47348 16.4192 13.9918 16.4192" stroke="#F48184" stroke-width="3" stroke-linecap="round" stroke-linejoin="round"/>
<path d="M23.7035 16.8666C24.6196 15.8607 26.2023 15.8607 27.1184 16.8666C27.5815 17.375 28.2469 17.6506 28.9338 17.6185C30.2928 17.555 31.412 18.6742 31.3485 20.0332C31.3164 20.7201 31.592 21.3856 32.1005 21.8486C33.1064 22.7647 33.1064 24.3474 32.1005 25.2635C31.592 25.7266 31.3164 26.392 31.3485 27.0789C31.412 28.4379 30.2928 29.5571 28.9338 29.4936C28.2469 29.4615 27.5815 29.7371 27.1184 30.2456C26.2023 31.2515 24.6196 31.2515 23.7035 30.2456C23.2405 29.7371 22.575 29.4615 21.8881 29.4936C20.5291 29.5571 19.4099 28.4379 19.4734 27.0789C19.5055 26.392 19.2299 25.7266 18.7215 25.2635C17.7156 24.3474 17.7156 22.7647 18.7215 21.8486C19.2299 21.3856 19.5055 20.7201 19.4734 20.0332C19.4099 18.6742 20.5291 17.555 21.8881 17.6185C22.575 17.6506 23.2405 17.375 23.7035 16.8666Z" stroke="#F48184" stroke-width="3"/>
<path d="M23.0752 23.5564L24.6325 25.1135L27.7468 21.9992" stroke="#F48184" stroke-width="3" stroke-linecap="round" stroke-linejoin="round"/>
<path d="M13.9916 16.4192C17.1448 16.4192 19.7012 13.8629 19.7012 10.7096C19.7012 7.55627 17.1448 5 13.9916 5C10.8383 5 8.28198 7.55627 8.28198 10.7096C8.28198 13.8629 10.8383 16.4192 13.9916 16.4192Z" stroke="#F48184" stroke-width="3" stroke-linecap="round" stroke-linejoin="round"/>
</svg>
